# xmcd
#
# Track frame offsets:
#	150
#	18070
#	38778
#	58675
#	77466
#	96584
#	112995
#	131385
#	149330
#	167480
#	187720
#	212356
#	230636
#
# Disc length: 3559 seconds
#
# Revision: 1
# Processed by: cddbd v1.5.2PL0 Copyright (c) Steve Scherf et al.
# Submitted via: audiograbber 1.83.01
#
DISCID=9c0de50d
DTITLE=Joan Armatrading - Into the blues
DYEAR=2007
DGENRE=Blues
TTITLE0=A woman in love
TTITLE1=Play the blues
TTITLE2=Into the blues
TTITLE3=Liza
TTITLE4=Secular songs
TTITLE5=My baby's gone
TTITLE6=DNA
TTITLE7=Baby blue eyes
TTITLE8=Deep Down
TTITLE9=There ain't a girl live
TTITLE10=Empty highway
TTITLE11=Mama papa
TTITLE12=Something's gotta blow
EXTD=Hypertension
EXTT0=
EXTT1=
EXTT2=
EXTT3=
EXTT4=
EXTT5=
EXTT6=
EXTT7=
EXTT8=
EXTT9=
EXTT10=
EXTT11=
EXTT12=
PLAYORDER=
